<?xml version="1.0" encoding="UTF-8"?>
<svg width="225px" height="80px" viewBox="0 0 225 80" version="1.1" xmlns="http://www.w3.org/2000/svg" xmlns:xlink="http://www.w3.org/1999/xlink">
    <!-- Generator: Sketch 63.1 (92452) - https://sketch.com -->
    <title>logo/digip-logo-white-text</title>
    <desc>Created with Sketch.</desc>
    <defs>
        <radialGradient cx="50%" cy="50%" fx="50%" fy="50%" r="66.8537821%" gradientTransform="translate(0.500000,0.500000),scale(0.622430,1.000000),translate(-0.500000,-0.500000)" id="radialGradient-1">
            <stop stop-color="#2AADFF" offset="0%"></stop>
            <stop stop-color="#1974EE" offset="100%"></stop>
        </radialGradient>
        <radialGradient cx="49.95%" cy="50%" fx="49.95%" fy="50%" r="54.054%" gradientTransform="translate(0.499500,0.500000),scale(1.000000,0.865317),translate(-0.499500,-0.500000)" id="radialGradient-2">
            <stop stop-color="#2AADFF" offset="0%"></stop>
            <stop stop-color="#1974EE" offset="100%"></stop>
        </radialGradient>
        <radialGradient cx="50.05%" cy="50%" fx="50.05%" fy="50%" r="78.001016%" gradientTransform="translate(0.500500,0.500000),scale(0.508993,1.000000),translate(-0.500500,-0.500000)" id="radialGradient-3">
            <stop stop-color="#2AADFF" offset="0%"></stop>
            <stop stop-color="#1974EE" offset="100%"></stop>
        </radialGradient>
        <radialGradient cx="50%" cy="50%" fx="50%" fy="50%" r="52.27772%" gradientTransform="translate(0.500000,0.500000),scale(0.918391,1.000000),translate(-0.500000,-0.500000)" id="radialGradient-4">
            <stop stop-color="#2AADFF" offset="0%"></stop>
            <stop stop-color="#1974EE" offset="100%"></stop>
        </radialGradient>
        <radialGradient cx="50.05%" cy="50%" fx="50.05%" fy="50%" r="141.144407%" gradientTransform="translate(0.500500,0.500000),scale(0.258919,1.000000),translate(-0.500500,-0.500000)" id="radialGradient-5">
            <stop stop-color="#2AADFF" offset="0%"></stop>
            <stop stop-color="#1974EE" offset="100%"></stop>
        </radialGradient>
        <radialGradient cx="50.1%" cy="50%" fx="50.1%" fy="50%" r="50.054805%" gradientTransform="translate(0.501000,0.500000),scale(0.998905,1.000000),translate(-0.501000,-0.500000)" id="radialGradient-6">
            <stop stop-color="#2AADFF" offset="0%"></stop>
            <stop stop-color="#1974EE" offset="100%"></stop>
        </radialGradient>
        <radialGradient cx="50%" cy="50%" fx="50%" fy="50%" r="132.466124%" gradientTransform="translate(0.500000,0.500000),scale(0.276487,1.000000),translate(-0.500000,-0.500000)" id="radialGradient-7">
            <stop stop-color="#2AADFF" offset="0%"></stop>
            <stop stop-color="#1974EE" offset="100%"></stop>
        </radialGradient>
        <radialGradient cx="50%" cy="50%" fx="50%" fy="50%" r="123.33236%" gradientTransform="translate(0.500000,0.500000),scale(0.298647,1.000000),translate(-0.500000,-0.500000)" id="radialGradient-8">
            <stop stop-color="#2AADFF" offset="0%"></stop>
            <stop stop-color="#1974EE" offset="100%"></stop>
        </radialGradient>
        <radialGradient cx="50%" cy="50%" fx="50%" fy="50%" r="80.9866421%" gradientTransform="translate(0.500000,0.500000),scale(0.484677,1.000000),translate(-0.500000,-0.500000)" id="radialGradient-9">
            <stop stop-color="#2AADFF" offset="0%"></stop>
            <stop stop-color="#1974EE" offset="100%"></stop>
        </radialGradient>
        <radialGradient cx="50.05%" cy="50%" fx="50.05%" fy="50%" r="82.2182827%" gradientTransform="translate(0.500500,0.500000),scale(0.476894,1.000000),translate(-0.500500,-0.500000)" id="radialGradient-10">
            <stop stop-color="#2AADFF" offset="0%"></stop>
            <stop stop-color="#1974EE" offset="100%"></stop>
        </radialGradient>
        <radialGradient cx="50.05%" cy="50%" fx="50.05%" fy="50%" r="77.5169261%" gradientTransform="translate(0.500500,0.500000),scale(0.512888,1.000000),translate(-0.500500,-0.500000)" id="radialGradient-11">
            <stop stop-color="#2AADFF" offset="0%"></stop>
            <stop stop-color="#1974EE" offset="100%"></stop>
        </radialGradient>
        <radialGradient cx="50.05%" cy="50%" fx="50.05%" fy="50%" r="73.0771744%" gradientTransform="translate(0.500500,0.500000),scale(0.553173,1.000000),translate(-0.500500,-0.500000)" id="radialGradient-12">
            <stop stop-color="#2AADFF" offset="0%"></stop>
            <stop stop-color="#1974EE" offset="100%"></stop>
        </radialGradient>
    </defs>
    <g id="Symbols" stroke="none" stroke-width="1" fill="none" fill-rule="evenodd">
        <g id="footer" transform="translate(-320.000000, -1100.000000)">
            <g id="Group-38">
                <g transform="translate(0.000000, 1030.000000)">
                    <g id="Group-35" transform="translate(320.000000, 70.000000)">
                        <g id="Group-34">
                            <g id="logo/digip-logo-white-text">
                                <g>
                                    <g id="Group_1" transform="translate(0.455515, 0.455724)" fill-rule="nonzero">
                                        <path d="M8.17224265,32.8893793 C8.80463405,31.7743699 9.07211488,30.4892157 8.93713235,29.2143448 C9.0861101,27.4430697 9.38759621,25.6879609 9.83823529,23.9685517 C13.3792279,11.4201379 27.834375,6.01765517 39.2316176,11.4488276 C45.0865809,14.2135172 49.096875,20.0772414 50.2196691,26.4055172 C50.7987132,28.7382069 50.1220588,31.3037241 51.2244485,33.4824828 C52.3070997,35.3329522 54.1371277,36.6242181 56.2428309,37.0234483 C57.3005515,37.2513103 58.7729779,37.5630345 59.4369485,36.4551724 C59.6971887,36.0200813 59.7327567,35.4864283 59.5325614,35.020621 C59.3323661,34.5548136 58.9207637,34.2135228 58.4261029,34.1031724 C56.5075368,34.1522759 53.6884191,33.513931 53.7292279,31.1166897 C53.8356087,26.6739615 52.7204249,22.2873236 50.5053309,18.4353103 C43.2810662,4.68910345 23.9288603,2.01986207 13.0549632,13.0477241 C9.68880956,16.3560074 7.35911724,20.5738897 6.35073529,25.1856552 C5.83014706,27.0764138 5.92279412,29.0775172 5.62224265,30.9958621 C5.24227941,31.8902069 4.22261029,32.304 3.54761029,31.4802759 C3.15772059,29.4388966 3.65790441,27.3114483 3.83933824,25.2761379 C6.28069853,10.1588966 21.6038603,0.399448276 36.4036765,4.20027586 C47.9845588,6.85903448 56.4821691,18.1809655 56.4772059,29.9988966 C56.0299632,32.889931 60.1113971,33.0085517 59.6757353,30.0937931 C59.4188267,20.4662432 54.7095475,11.5033902 46.9284926,5.83282759 C27.7726103,-8.37627586 0.513970588,6.22289655 0.304963235,29.6535172 L0.28125,29.6535172 C-0.293382353,34.713931 5.30459559,37.1437241 8.17224265,32.8893793 Z" id="Path_1" fill="url(#radialGradient-1)"></path>
                                        <path d="M37.1569853,31.1051034 C37.2253676,28.6946207 36.4902574,26.1026207 34.6670956,24.4932414 C31.8570822,22.4614438 28.0647022,22.449456 25.2419118,24.4634483 C22.9428309,26.3828966 22.6174632,29.4697931 22.5876838,32.2747586 C22.3792723,34.3695928 21.8510777,36.4200789 21.0215074,38.3547586 C19.409796,42.0431426 16.7155218,45.1542675 13.2959559,47.2755862 C9.85753676,49.4273103 6.18198529,50.0827586 2.18658088,50.3034483 C0.931433824,50.5577931 0.710845588,52.4711724 1.75698529,53.1128276 C2.97573529,53.7445517 4.41066176,53.270069 5.70441176,53.2171034 C14.1594548,51.9112344 21.2750587,46.1900521 24.3689338,38.2102069 C25.3272752,35.6415472 25.8582133,32.9330767 25.940625,30.1925517 C25.7398897,26.9693793 29.2213235,25.3048276 31.9185662,26.5616552 C35.7579044,28.7023448 33.2928309,36.2797241 32.5516544,39.7241379 C29.5759697,49.1110937 22.3592868,56.5503903 13.0698529,59.8068966 C9.96297163,60.7738698 6.75433889,61.3765287 3.50845588,61.6027586 C2.34264706,62.0722759 2.10110294,63.8350345 3.29117647,64.4204138 C4.01636029,64.809931 5.26930147,64.585931 6.11084559,64.5307586 C22.9373162,62.8904828 36.7830882,48.1070345 37.1569853,31.1051034 Z" id="Path_2" fill="url(#radialGradient-2)"></path>
                                        <path d="M14.0272059,33.2275862 C14.4430147,30.3884138 14.1375,27.4146207 15.2012868,24.6984828 C17.3922794,17.8758621 24.2647059,14.1048276 31.2799632,14.966069 C36.9635927,15.5695459 41.7936031,19.389516 43.6924632,24.7828966 C44.7860294,27.5817931 44.2229779,30.6797241 45.2255515,33.4852414 C47.1435662,38.2124138 51.8641544,42.3012414 57.1516544,42.0954483 C57.7884032,42.1416972 58.4283921,42.1118778 59.0580882,42.0066207 C59.4831084,41.8130466 59.8026781,41.4437392 59.9333049,40.9951857 C60.0639316,40.5466322 59.9926383,40.0633939 59.7380515,39.6717241 C58.8755515,38.2548966 55.6152574,39.6684138 52.9808824,38.0215172 C50.645601,36.8430818 48.8892009,34.7658569 48.1147059,32.2664828 C47.5985294,30.121931 47.8455882,27.8190345 47.1832721,25.7009655 C46.1860431,21.9988217 44.1277482,18.6695521 41.2621324,16.1235862 C33.3496324,9.02068966 19.7746324,10.6697931 14.2185662,19.9525517 C12.6202149,22.360076 11.6038818,25.1067403 11.25,27.9751724 C10.9345588,29.817931 11.2433824,31.7158621 10.7625,33.5288276 C10.1983456,36.4104828 7.20661765,38.4844138 4.33731618,38.2968276 C3.88218979,38.2374214 3.43794945,38.1129323 3.01819853,37.9271724 C2.65477941,37.7616552 2.35257353,37.4604138 1.91525735,37.5277241 C0.785845588,37.5376552 -0.147242647,38.8126897 0.490808824,39.8113103 C1.33014706,41.0074483 2.95698529,41.3362759 4.32683824,41.5177931 C9.11525735,41.7257931 13.2716912,37.8725517 14.0272059,33.2275862 Z" id="Path_3" fill="url(#radialGradient-3)"></path>
                                        <path d="M33.0297794,51.2871724 C32.5886029,52.1622069 31.0731618,53.3511724 31.4977941,54.3702069 C31.6264358,54.8895344 32.0060256,55.310162 32.5093142,55.4910833 C33.0126029,55.6720046 33.5729733,55.5892724 34.0025735,55.2706207 C39.5555545,48.2737632 42.6321621,39.6319001 42.7505515,30.6984828 L42.7816696,30.6984828 C42.8608456,15.7793103 22.8590074,12.0937931 17.7573529,26.057931 C16.7928309,28.6968276 17.2957721,31.5823448 16.5104779,34.2653793 C14.8957721,40.3387586 8.98566176,44.6228966 2.74025735,44.6377931 C0.554227941,44.4722759 0.629227941,47.6722759 2.67518382,47.7594483 C9.84981618,47.7765517 16.6125,42.8491034 19.1056985,36.1848276 C20.0713235,33.8223448 20.2764706,31.2413793 20.3134191,28.7106207 C20.9200368,23.0830345 26.0674632,19.7881379 31.4806985,20.5914483 C42.4770221,22.1362759 39.9733456,35.2904828 37.3841912,42.8485517 C36.2833849,45.8291126 34.8209746,48.6631867 33.0297794,51.2871724 Z" id="Path_4" fill="url(#radialGradient-4)"></path>
                                        <path d="M53.1066176,66.8369655 C52.4865709,66.809447 51.8708263,66.7199908 51.2685662,66.569931 C45.9107687,65.7275345 40.8238654,63.6441892 36.4136029,60.486069 C34.3477941,58.9726897 32.4132353,56.8573793 29.5681985,57.3726897 C26.9283088,57.6408276 25.0488971,59.648 22.9340074,61.0096552 C20.1784777,62.8097514 17.1949164,64.2334719 14.0625,65.2430345 C12.6735972,65.7429708 11.2447439,66.1239274 9.79136029,66.3817931 C8.32775735,66.8584828 5.62113971,66.246069 5.34099265,68.2802759 C5.50257353,71.2171034 9.28897059,69.504 11.0911765,69.3285517 C14.19375,68.7404138 17.1148897,67.5354483 20.0112132,66.2863448 C22.152941,65.2256838 24.207988,63.9981763 26.1573529,62.6151724 C27.5360294,61.8251034 28.7784926,60.1577931 30.4963235,60.329931 C32.4529412,60.992 33.8222426,62.7089655 35.5858456,63.7572414 C38.7886889,65.8587709 42.2787386,67.4853849 45.9474265,68.5864828 C47.7077206,68.9175172 52.3202206,70.6278621 53.7441176,69.6275862 C54.8795956,68.992 54.2922794,67.030069 53.1066176,66.8369655 Z" id="Path_5" fill="url(#radialGradient-5)"></path>
                                        <path d="M29.0884191,41.5801379 C30.1151502,39.2851216 30.8119537,36.8562402 31.1580882,34.3657931 C31.2523897,32.7834483 32.1292279,29.894069 30.759375,28.8049655 C27.5459559,27.6463448 28.4801471,31.8946207 28.0908088,33.721931 C26.6845674,44.7134101 18.2970579,53.5127424 7.38970588,55.4394483 C6.39032611,55.639578 5.37773475,55.7668093 4.35992647,55.8201379 C3.57683824,55.8201379 2.72095588,55.625931 1.98860294,55.9856552 C0.587316176,56.6361379 0.912132353,59.0510345 2.66029412,58.9754483 C13.9351103,59.225931 24.6534926,51.8068966 29.0884191,41.5801379 Z" id="Path_6" fill="url(#radialGradient-6)"></path>
                                        <path d="M48.8994485,71.9332414 C45.4207721,70.8022069 42.2012868,69.0642759 38.9178309,67.4841379 C36.3838235,66.2455172 33.9738971,64.5390345 31.1040441,64.2841379 C27.5972426,64.086069 24.6270221,66.1257931 21.5790441,67.5608276 C19.0698529,68.7713103 16.5832721,70.0871724 14.0045956,71.1387586 C13.2490809,71.4995862 12.4362132,71.7202759 11.6729779,72.0457931 C10.8457721,72.2068966 9.95790441,72.7133793 10.0373162,73.705931 L10.0373162,73.705931 C10.0084732,74.1713598 10.1964204,74.6239676 10.5464197,74.9319359 C10.8964189,75.2399042 11.3691148,75.3686037 11.8268382,75.2805517 C12.1488008,75.2701159 12.4616111,75.170826 12.7306985,74.9936552 C13.08354,74.9273642 13.4227919,74.8024174 13.734375,74.624 C17.5273897,73.2998621 21.0463235,71.2844138 24.675,69.5613793 C26.75625,68.656 28.9577206,66.9782069 31.3246324,67.4846897 C35.503125,68.8331034 39.2266544,71.4317241 43.2915441,73.1602759 C44.7601103,73.4913103 48.3099265,75.8686897 49.4194853,74.6052414 C49.8375728,74.2341226 50.0285598,73.669625 49.9217351,73.1207488 C49.8149103,72.5718727 49.4261725,72.1203075 48.8994485,71.9332414 L48.8994485,71.9332414 Z" id="Path_7" fill="url(#radialGradient-7)"></path>
                                        <path d="M43.2744485,76.182069 C41.0917279,75.0550805 38.9090074,73.9402299 36.7262868,72.8375172 C34.5386029,71.590069 32.1490809,70.5202759 29.5709559,70.8617931 C27.5669118,70.9081379 25.6748162,71.8190345 23.9459559,72.758069 C21.440625,73.8984828 18.965625,75.2082759 16.4542279,76.3569655 C15.9182033,76.7507973 15.6854417,77.4378657 15.8716587,78.0765999 C16.0578757,78.7153341 16.6233453,79.1694716 17.2869485,79.2133041 C18.1841912,79.2204138 18.9705882,78.6107586 19.7685662,78.2753103 C21.4273897,77.5470345 23.0443015,76.7304828 24.6507353,75.8764138 C26.8306985,74.8971034 29.1727941,73.3936552 31.6665441,74.0391724 C34.3466912,74.9081379 36.7654412,76.4893793 39.3005515,77.7191724 C40.2876838,78.1313103 41.1634191,78.8286897 42.2398897,79.0510345 C43.9775735,79.3715862 44.6007353,76.9208276 43.2744485,76.182069 Z" id="Path_8" fill="url(#radialGradient-8)"></path>
                                        <path d="M55.8612132,61.5017931 C52.3578443,61.2505085 48.9190139,60.4284699 45.6805147,59.0681379 C43.8087774,58.2195711 42.0182768,57.2020252 40.33125,56.0281379 C39.2073529,55.1856552 37.7145221,53.4791724 36.4615809,55.1205517 C34.5783088,57.3682759 41.9658088,60.5748966 43.5066176,61.5321379 C47.1914056,63.2202555 51.1351044,64.2725288 55.1707721,64.6444138 L55.1707721,64.6212414 C57.4533088,65.1464828 58.2022059,61.7931034 55.8612132,61.5017931 Z" id="Path_9" fill="url(#radialGradient-9)"></path>
                                        <path d="M57.2658088,55.8052414 C53.1398004,55.7570187 49.0907501,54.6815285 45.4841912,52.6758621 C44.0286926,51.8458275 42.6562183,50.8778917 41.3856618,49.7853793 C39.7693015,48.4314483 37.7784926,51.1348966 39.4555147,52.3122759 C40.4260194,53.1405044 41.4617322,53.8890476 42.5525735,54.5506207 C46.7147363,57.1875268 51.4799526,58.7196974 56.3983456,59.0024828 C59.6172794,59.5652414 59.9068015,56.0154483 57.2658088,55.8052414 Z" id="Path_10" fill="url(#radialGradient-10)"></path>
                                        <path d="M58.5799632,50.3017931 C55.7123162,50.0684138 52.7619485,49.8416552 50.1512868,48.5666207 C48.7798901,47.9899265 47.4861638,47.2435093 46.3003676,46.3448276 C45.1726103,45.8306207 43.81875,43.4427586 42.4494485,44.2758621 C41.9690084,44.4688735 41.6176901,44.8905306 41.5144263,45.3980887 C41.4111626,45.9056467 41.5697798,46.4311467 41.9365809,46.7966897 C43.7955467,48.5792018 45.9290592,50.0508808 48.2553309,51.1553103 C51.2120896,52.5254404 54.4120452,53.2925525 57.6683824,53.4118621 C59.6691176,53.6965517 60.5299632,51.0046897 58.5799632,50.3017931 Z" id="Path_11" fill="url(#radialGradient-11)"></path>
                                        <path d="M58.7073529,44.6449655 C54.4742647,44.5451034 49.7431985,43.5768276 46.9610294,40.1368276 C46.2794118,38.5081379 44.1248162,37.8824828 43.5286765,39.910069 C43.4398897,41.6275862 45.3998162,43.0863448 46.5865809,44.1153103 C49.8347426,46.665931 54.0237132,47.513931 58.0632353,47.8118621 L58.0632353,47.7804138 C60.3176471,48.265931 61.0444853,44.8226207 58.7073529,44.6449655 Z" id="Path_12" fill="url(#radialGradient-12)"></path>
                                    </g>
                                    <path d="M172.214338,9.98510345 C174.302639,9.92882825 175.972374,8.2300494 175.993566,6.14013793 C175.94468,4.07256582 174.28096,2.40808117 172.214338,2.35917179 C170.116168,2.3579922 168.405175,4.04127863 168.37114,6.14013793 C168.377198,8.26113817 170.094313,9.97904254 172.214338,9.98510345 L172.214338,9.98510345 Z M169.009743,48.6256552 L175.351654,48.6256552 L175.351654,15.4957241 L169.009743,15.4957241 L169.009743,48.6256552 Z M202.893199,14.7266207 C198.095036,14.6388087 193.609841,17.1019606 191.107721,21.1988966 L191.107721,15.4957241 L184.832537,15.4957241 L184.832537,59.6474483 L191.109375,59.6474483 L191.109375,42.8584828 C193.583763,46.9925004 198.079942,49.4859836 202.895404,49.3947586 C211.60864,49.3947586 218.139706,42.217931 218.139706,32.0286897 C218.139706,21.904 211.606434,14.7266207 202.895404,14.7266207 L202.893199,14.7266207 Z M201.357904,43.8835862 C195.402022,43.8835862 191.109926,38.9495172 191.109926,32.0286897 C191.109926,25.1078621 195.401471,20.2377931 201.357904,20.2377931 C207.442831,20.2377931 211.734375,25.1078621 211.734375,32.0286897 C211.734375,38.9495172 207.442831,43.8835862 201.357904,43.8835862 Z" id="Path_13" fill="#3AA6F8" fill-rule="nonzero"></path>
                                    <path d="M104.191544,3.83282759 L104.191544,22.16 C101.672565,17.4866852 96.7513431,14.6166938 91.4454044,14.7266207 C83.1827206,14.7266207 76.4575368,22.352 76.4575368,32.0286897 C76.4575368,41.7053793 83.1827206,49.3947586 91.4454044,49.3947586 C96.7696908,49.5064537 101.701691,46.604345 104.191544,41.8946207 L104.191544,48.6256552 L107.329963,48.6256552 L107.329963,3.83282759 L104.191544,3.83282759 Z M92.0862132,46.4468966 C85.2325368,46.4468966 79.7266544,40.0386207 79.7266544,32.0286897 C79.7266544,24.0838621 85.2352941,17.6744828 92.0884191,17.6744828 C99.1340074,17.6744828 104.194301,23.6331034 104.194301,32.0286897 C104.191544,40.4871724 99.1318015,46.4468966 92.0862132,46.4468966 Z M119.053125,8.63890438 C120.331717,8.59120246 121.347044,7.54649686 121.358824,6.26648276 C121.319004,5.00936631 120.309664,3.99956225 119.053125,3.95972414 C117.764396,3.94859492 116.70684,4.97735672 116.681791,6.26648276 C116.679891,6.89607865 116.928961,7.500455 117.373847,7.94575212 C117.818732,8.39104925 118.422715,8.64051494 119.052022,8.63890438 L119.053125,8.63890438 Z M117.450551,48.6256552 L120.590625,48.6256552 L120.590625,15.4957241 L117.450551,15.4957241 L117.450551,48.6256552 Z M156.009375,15.4957241 L156.009375,22.6085517 C153.511213,17.481931 148.707353,14.7266207 142.750919,14.7266207 C134.552206,14.7266207 128.018934,21.6474483 128.018934,30.4264828 C128.018934,39.2055172 134.552206,46.1903448 142.750919,46.1903448 C148.515441,46.1903448 153.511765,43.4350345 156.009375,38.3084138 L156.009375,45.1012414 C156.009375,52.022069 150.949081,56.7001379 143.325551,56.7001379 C139.226471,56.7001379 134.550551,55.033931 131.796507,52.5991724 L130.323529,55.2264828 C133.334007,57.7897931 138.714154,59.648 143.710478,59.648 C152.741912,59.648 159.146691,53.6242759 159.146691,45.1017931 L159.146691,15.4962759 L156.009375,15.4957241 Z M143.391176,43.2430345 C136.663235,43.2430345 131.285294,37.5398621 131.285294,30.4270345 C131.285294,23.3782069 136.665441,17.6750345 143.391176,17.6750345 C150.564706,17.6750345 156.009375,22.9936552 156.009375,30.4270345 C156.009375,37.9222069 150.565257,43.2430345 143.391176,43.2430345 Z" id="Path_16" fill="#FFFFFF" fill-rule="nonzero"></path>
                                    <path d="M218.102206,8.33544828 L218.102206,5.52165517 L216.904963,5.52165517 L216.904963,4.74593103 L220.375368,4.74593103 L220.375368,5.52165517 L219.178125,5.52165517 L219.178125,8.33544828 L218.102206,8.33544828 Z M220.850184,8.33544828 L220.850184,4.74924138 L222.270221,4.74924138 L222.876838,6.61131034 L223.555147,4.74924138 L224.858824,4.74924138 L224.858824,8.33544828 L223.782353,8.33544828 L223.782353,5.75337931 L223.015257,8.04744828 L222.353493,8.04744828 L221.631066,5.87034483 L221.631066,8.33544828 L220.850184,8.33544828 Z" id="Path_14" fill="#FFFFFF" fill-rule="nonzero"></path>
                                    <path d="M78.2845588,75.9608276 L79.4840074,75.9608276 L79.4840074,72.2366897 C79.8013381,72.3020671 80.1252583,72.3298445 80.4490809,72.3194483 C81.4947914,72.3775094 82.5194076,72.0092741 83.2891544,71.2987586 C83.7841193,70.7593176 84.0423397,70.043917 84.0060662,69.3125517 C84.0285189,68.5771473 83.73191,67.8679763 83.1926471,67.3677241 C82.4482025,66.7991717 81.5208166,66.5242643 80.5869485,66.5953103 C79.8158428,66.5910932 79.0457231,66.6510702 78.2845588,66.7746207 L78.2845588,75.9608276 Z M79.4840074,67.6435862 C79.8560036,67.5688754 80.2352509,67.5364857 80.6145221,67.5470345 C81.9242647,67.5470345 82.8066176,68.1401379 82.8066176,69.3815172 C82.8066176,70.6366897 81.9242647,71.353931 80.4766544,71.353931 C80.1430498,71.3630693 79.8096051,71.3306361 79.4840074,71.2573793 L79.4840074,67.6435862 Z M85.3571691,75.9608276 L86.5704044,75.9608276 L86.5704044,72.4022069 C86.5694374,72.2129108 86.5832663,72.0238288 86.6117647,71.8366897 C86.6845125,70.9837589 87.3834308,70.3200738 88.2386029,70.2918621 C88.3770647,70.2858483 88.5157674,70.2950994 88.6522059,70.3194483 L88.6522059,69.1746207 C88.5426551,69.1580109 88.4321113,69.1487947 88.3213235,69.1470345 C87.4504117,69.1810961 86.6997898,69.7707443 86.4601103,70.6091034 L86.41875,70.6091034 L86.3636029,69.2849655 L85.3020221,69.2849655 C85.3433824,69.9056552 85.3571691,70.5815172 85.3571691,71.3677241 L85.3571691,75.9608276 Z M92.5538603,69.1470345 C90.7202206,69.1470345 89.2450368,70.4573793 89.2450368,72.678069 C89.2450368,74.7884138 90.6512868,76.1125517 92.4435662,76.1125517 C94.0428309,76.1125517 95.7661765,75.0366897 95.7661765,72.5677241 C95.7661765,70.5401379 94.4702206,69.1470345 92.5538603,69.1470345 Z M92.5262868,70.0573793 C93.9601103,70.0573793 94.5253676,71.478069 94.5253676,72.6091034 C94.5253676,74.1125517 93.6568015,75.2022069 92.4987132,75.2022069 C91.3130515,75.2022069 90.4858456,74.0987586 90.4858456,72.6366897 C90.4858456,71.3815172 91.10625,70.0573793 92.5262868,70.0573793 L92.5262868,70.0573793 Z M97.5722426,68.0435862 L97.5722426,69.2849655 L96.5382353,69.2849655 L96.5382353,70.2091034 L97.5722426,70.2091034 L97.5722426,73.8504828 C97.5140194,74.4716893 97.6803302,75.0931945 98.0409926,75.6022069 C98.3857508,75.9500324 98.8616494,76.1354676 99.3507353,76.1125517 C99.7158644,76.1171227 100.079232,76.0611943 100.426103,75.9470345 L100.370956,75.0228966 C100.142364,75.0871779 99.9050927,75.115105 99.6678309,75.1056552 C98.9922794,75.1056552 98.7579044,74.6366897 98.7579044,73.8091034 L98.7579044,70.2091034 L100.495037,70.2091034 L100.495037,69.2849655 L98.7579044,69.2849655 L98.7579044,67.6849655 L97.5722426,68.0435862 Z M107.140257,72.8435862 C107.172108,72.6568398 107.185958,72.4674647 107.181618,72.278069 C107.181618,71.0504828 106.61636,69.1470345 104.424265,69.1470345 C102.480331,69.1470345 101.294669,70.7194483 101.294669,72.7332414 C101.294669,74.7470345 102.521691,76.1125517 104.575919,76.1125517 C105.34221,76.1291514 106.103347,75.9834347 106.809375,75.6849655 L106.588787,74.816 C106.005542,75.0645515 105.374951,75.182253 104.74136,75.1608276 C103.514338,75.1608276 102.480331,74.4849655 102.452757,72.8435862 L107.140257,72.8435862 Z M102.466544,71.9746207 C102.563051,71.1332414 103.086949,70.016 104.327757,70.016 C105.692647,70.016 106.023529,71.216 106.009743,71.9746207 L102.466544,71.9746207 Z M113.234007,74.816 C112.76723,75.0305746 112.258699,75.1389225 111.745037,75.1332414 C110.421507,75.1332414 109.42886,74.1815172 109.42886,72.6366897 C109.42886,71.2573793 110.256066,70.1125517 111.786397,70.1125517 C112.274072,70.1011874 112.75704,70.2101421 113.192647,70.4297931 L113.468382,69.5056552 C112.942254,69.2597663 112.367016,69.1371184 111.786397,69.1470345 C110.825327,69.094127 109.886844,69.4510611 109.203614,70.1293473 C108.520384,70.8076334 108.156378,71.7437632 108.201838,72.7056552 C108.201838,74.7470345 109.511581,76.1125517 111.524449,76.1125517 C112.183257,76.119888 112.836221,75.9882953 113.440809,75.7263448 L113.234007,74.816 Z M115.315809,68.0435862 L115.315809,69.2849655 L114.281801,69.2849655 L114.281801,70.2091034 L115.315809,70.2091034 L115.315809,73.8504828 C115.257586,74.4716893 115.423896,75.0931945 115.784559,75.6022069 C116.129317,75.9500324 116.605216,76.1354676 117.094301,76.1125517 C117.459431,76.1171227 117.822798,76.0611943 118.169669,75.9470345 L118.114522,75.0228966 C117.885931,75.0871779 117.648659,75.115105 117.411397,75.1056552 C116.735846,75.1056552 116.501471,74.6366897 116.501471,73.8091034 L116.501471,70.2091034 L118.238603,70.2091034 L118.238603,69.2849655 L116.501471,69.2849655 L116.501471,67.6849655 L115.315809,68.0435862 Z M124.842463,75.9608276 L126.165993,71.1194483 C126.465629,70.123268 126.705033,69.1099398 126.882904,68.0849655 L126.910478,68.0849655 C127.056603,69.1068763 127.259119,70.1199181 127.517096,71.1194483 L128.688971,75.9608276 L129.943566,75.9608276 L132.576838,66.6642759 L131.349816,66.6642759 L130.122794,71.353931 C129.833272,72.5125517 129.571324,73.5470345 129.378309,74.5677241 L129.350735,74.5677241 C129.212868,73.5884138 128.964706,72.4849655 128.702757,71.3815172 L127.572243,66.6642759 L126.317647,66.6642759 L125.076838,71.353931 C124.759743,72.553931 124.470221,73.6573793 124.318566,74.5815172 L124.290993,74.5815172 C124.125551,73.6849655 123.87739,72.5263448 123.601654,71.3677241 L122.498713,66.6642759 L121.230331,66.6642759 L123.587868,75.9608276 L124.842463,75.9608276 Z M133.624632,75.9608276 L134.837868,75.9608276 L134.837868,71.9332414 C134.82846,71.7366365 134.856533,71.5400364 134.920588,71.353931 C135.157524,70.6520825 135.807211,70.1728564 136.547426,70.153931 C137.691728,70.153931 138.091544,71.0504828 138.091544,72.1263448 L138.091544,75.9608276 L139.304779,75.9608276 L139.304779,71.9884138 C139.304779,69.6987586 137.870956,69.1470345 136.974816,69.1470345 C136.53938,69.1468091 136.111514,69.2609589 135.734007,69.478069 C135.37061,69.6829478 135.070226,69.9834699 134.865441,70.3470345 L134.837868,70.3470345 L134.837868,66.1677241 L133.624632,66.1677241 L133.624632,75.9608276 Z M145.963787,71.8642759 C145.963787,70.5401379 145.467463,69.1470345 143.427022,69.1470345 C142.653139,69.1390065 141.891306,69.3390797 141.22114,69.7263448 L141.496875,70.5401379 C142.020545,70.2093932 142.628538,70.0369695 143.247794,70.0435862 C143.665741,69.9939668 144.083226,70.1397926 144.379483,70.4388802 C144.67574,70.7379679 144.817715,71.1569478 144.764338,71.5746207 L144.764338,71.7125517 C142.186213,71.6987586 140.75239,72.5815172 140.75239,74.1953103 C140.746631,74.7275183 140.964053,75.2377874 141.351835,75.6021562 C141.739618,75.9665251 142.262274,76.1516477 142.792831,76.1125517 C143.593143,76.1295637 144.352659,75.7598995 144.833272,75.1194483 L144.874632,75.1194483 L144.97114,75.9608276 L146.060294,75.9608276 C145.98997,75.4304847 145.957719,74.8957824 145.963787,74.3608276 L145.963787,71.8642759 Z M144.791912,73.7125517 C144.792032,73.8432597 144.773462,73.9733127 144.736765,74.0987586 C144.490581,74.7882195 143.827551,75.2397332 143.09614,75.216 C142.785425,75.2370221 142.481119,75.1207001 142.263577,74.8977503 C142.046036,74.6748004 141.937133,74.3676403 141.965625,74.0573793 C141.965625,72.7608276 143.468382,72.5263448 144.791912,72.553931 L144.791912,73.7125517 Z M148.142096,68.0435862 L148.142096,69.2849655 L147.108088,69.2849655 L147.108088,70.2091034 L148.142096,70.2091034 L148.142096,73.8504828 C148.083872,74.4716893 148.250183,75.0931945 148.610846,75.6022069 C148.955604,75.9500324 149.431502,76.1354676 149.920588,76.1125517 C150.285717,76.1171227 150.649085,76.0611943 150.995956,75.9470345 L150.940809,75.0228966 C150.712217,75.0871779 150.474946,75.115105 150.237684,75.1056552 C149.562132,75.1056552 149.327757,74.6366897 149.327757,73.8091034 L149.327757,70.2091034 L151.06489,70.2091034 L151.06489,69.2849655 L149.327757,69.2849655 L149.327757,67.6849655 L148.142096,68.0435862 Z M158.040993,75.9608276 L158.040993,72.0022069 L161.143015,66.6642759 L159.791912,66.6642759 L158.454596,69.2297931 C158.09614,69.9332414 157.765257,70.5401379 157.517096,71.1470345 L157.489522,71.1470345 C157.2,70.4987586 156.910478,69.9332414 156.565809,69.2297931 L155.256066,66.6642759 L153.87739,66.6642759 L156.827757,72.016 L156.827757,75.9608276 L158.040993,75.9608276 Z M163.955515,69.1470345 C162.121875,69.1470345 160.646691,70.4573793 160.646691,72.678069 C160.646691,74.7884138 162.052941,76.1125517 163.845221,76.1125517 C165.444485,76.1125517 167.167831,75.0366897 167.167831,72.5677241 C167.167831,70.5401379 165.871875,69.1470345 163.955515,69.1470345 Z M163.927941,70.0573793 C165.361765,70.0573793 165.927022,71.478069 165.927022,72.6091034 C165.927022,74.1125517 165.058456,75.2022069 163.900368,75.2022069 C162.714706,75.2022069 161.8875,74.0987586 161.8875,72.6366897 C161.8875,71.3815172 162.507904,70.0573793 163.927941,70.0573793 Z M174.281801,69.2849655 L173.068566,69.2849655 L173.068566,73.3677241 C173.071656,73.5797607 173.03422,73.7904349 172.958272,73.9884138 C172.702453,74.651996 172.069812,75.0939569 171.359007,75.1056552 C170.269853,75.1056552 169.870037,74.2366897 169.870037,72.9677241 L169.870037,69.2849655 L168.656801,69.2849655 L168.656801,73.1884138 C168.656801,75.5194483 169.911397,76.1125517 170.959191,76.1125517 C171.865421,76.130892 172.710146,75.6555159 173.165074,74.8711724 L173.192647,74.8711724 L173.261581,75.9608276 L174.336949,75.9608276 C174.295588,75.4366897 174.281801,74.8297931 174.281801,74.1263448 L174.281801,69.2849655 Z M185.504228,74.7056552 C184.881448,74.9714384 184.209703,75.1030294 183.532721,75.0918621 C181.285478,75.0918621 179.975735,73.6435862 179.975735,71.353931 C179.975735,68.9125517 181.423346,67.5194483 183.601654,67.5194483 C184.243228,67.5061478 184.879502,67.6381764 185.462868,67.9056552 L185.766176,66.9263448 C185.071389,66.6240549 184.317347,66.4826072 183.560294,66.5125517 C180.67886,66.5125517 178.707353,68.4711724 178.707353,71.3953103 C178.707353,74.4573793 180.665074,76.1125517 183.284559,76.1125517 C184.12466,76.1419863 184.961351,75.9915007 185.738603,75.6711724 L185.504228,74.7056552 Z M187.172426,75.9608276 L188.385662,75.9608276 L188.385662,72.4022069 C188.384692,72.2129107 188.398521,72.0238285 188.427022,71.8366897 C188.49977,70.9837589 189.198688,70.3200738 190.05386,70.2918621 C190.192322,70.2858483 190.331025,70.2950994 190.467463,70.3194483 L190.467463,69.1746207 C190.357913,69.1580092 190.247369,69.148793 190.136581,69.1470345 C189.265669,69.1810961 188.515047,69.7707443 188.275368,70.6091034 L188.234007,70.6091034 L188.17886,69.2849655 L187.117279,69.2849655 C187.15864,69.9056552 187.172426,70.5815172 187.172426,71.3677241 L187.172426,75.9608276 Z M196.905882,72.8435862 C196.937733,72.6568398 196.951583,72.4674647 196.947243,72.278069 C196.947243,71.0504828 196.381985,69.1470345 194.18989,69.1470345 C192.245956,69.1470345 191.060294,70.7194483 191.060294,72.7332414 C191.060294,74.7470345 192.287316,76.1125517 194.341544,76.1125517 C195.107835,76.1291514 195.868972,75.9834347 196.575,75.6849655 L196.354412,74.816 C195.771167,75.0645515 195.140576,75.182253 194.506985,75.1608276 C193.279963,75.1608276 192.245956,74.4849655 192.218382,72.8435862 L196.905882,72.8435862 Z M192.232169,71.9746207 C192.328676,71.1332414 192.852574,70.016 194.093382,70.016 C195.458272,70.016 195.789154,71.216 195.775368,71.9746207 L192.232169,71.9746207 Z M203.1375,71.8642759 C203.1375,70.5401379 202.641176,69.1470345 200.600735,69.1470345 C199.826852,69.1390065 199.065019,69.3390797 198.394853,69.7263448 L198.670588,70.5401379 C199.194258,70.2093932 199.802251,70.0369695 200.421507,70.0435862 C200.839454,69.9939668 201.25694,70.1397926 201.553197,70.4388802 C201.849454,70.7379679 201.991428,71.1569478 201.938051,71.5746207 L201.938051,71.7125517 C199.359926,71.6987586 197.926103,72.5815172 197.926103,74.1953103 C197.920344,74.7275183 198.137766,75.2377874 198.525549,75.6021562 C198.913332,75.9665251 199.435987,76.1516477 199.966544,76.1125517 C200.766857,76.1295637 201.526373,75.7598995 202.006985,75.1194483 L202.048346,75.1194483 L202.144853,75.9608276 L203.234007,75.9608276 C203.163684,75.4304847 203.131432,74.8957824 203.1375,74.3608276 L203.1375,71.8642759 Z M201.965626,73.7125517 C201.965745,73.8432597 201.947175,73.9733127 201.910478,74.0987586 C201.664295,74.7882195 201.001265,75.2397332 200.269853,75.216 C199.959086,75.2372159 199.654663,75.1209554 199.437077,74.8979592 C199.21949,74.6749631 199.110651,74.3676873 199.139338,74.0573793 C199.139338,72.7608276 200.642096,72.5263448 201.965626,72.553931 L201.965626,73.7125517 Z M205.315809,68.0435862 L205.315809,69.2849655 L204.281801,69.2849655 L204.281801,70.2091034 L205.315809,70.2091034 L205.315809,73.8504828 C205.257586,74.4716893 205.423896,75.0931945 205.784559,75.6022069 C206.129317,75.9500324 206.605216,76.1354676 207.094301,76.1125517 C207.459431,76.1171227 207.822798,76.0611943 208.169669,75.9470345 L208.114522,75.0228966 C207.885931,75.0871779 207.648659,75.115105 207.411397,75.1056552 C206.735846,75.1056552 206.501471,74.6366897 206.501471,73.8091034 L206.501471,70.2091034 L208.238603,70.2091034 L208.238603,69.2849655 L206.501471,69.2849655 L206.501471,67.6849655 L205.315809,68.0435862 Z M214.883824,72.8435862 C214.915674,72.6568398 214.929524,72.4674647 214.925184,72.278069 C214.925184,71.0504828 214.359926,69.1470345 212.167831,69.1470345 C210.223897,69.1470345 209.038235,70.7194483 209.038235,72.7332414 C209.038235,74.7470345 210.265257,76.1125517 212.319485,76.1125517 C213.085776,76.1291514 213.846913,75.9834347 214.552941,75.6849655 L214.332353,74.816 C213.749108,75.0645515 213.118517,75.182253 212.484926,75.1608276 C211.257904,75.1608276 210.223897,74.4849655 210.196324,72.8435862 L214.883824,72.8435862 Z M210.21011,71.9746207 C210.306618,71.1332414 210.830515,70.016 212.071324,70.016 C213.436213,70.016 213.767096,71.216 213.753309,71.9746207 L210.21011,71.9746207 Z" id="Path_15" fill="#FFFFFF" fill-rule="nonzero"></path>
                                </g>
                            </g>
                        </g>
                    </g>
                </g>
            </g>
        </g>
    </g>
</svg>